<svg width="114" height="114" viewBox="0 0 114 114" fill="none" xmlns="http://www.w3.org/2000/svg">
<circle cx="57" cy="57" r="57" fill="#222222"/>
<path d="M37.9922 70.307C38.8688 70.3122 39.7454 70.3104 40.6219 70.3104H42.242L42.2817 70.428C43.2033 73.1528 45.6912 74.4807 47.7487 74.5861C50.9922 74.7521 53.2433 73.3534 54.4414 70.428L54.4846 70.3208H64.1218L64.165 70.4297C65.2542 73.2082 67.2546 74.6155 70.1091 74.6155C70.1126 74.6155 70.1178 74.6155 70.1212 74.6155C73.0795 74.6121 75.1369 73.2012 76.2348 70.4211L76.278 70.3122H78.0484C79.0322 70.3122 80.016 70.3139 80.9998 70.3104C81.8521 70.3087 82.4279 69.752 82.4296 68.9256C82.4365 66.6503 82.4348 64.3369 82.4331 62.0997L82.4313 59.6446C82.4313 59.2901 82.3155 58.9858 82.0786 58.7127C81.8314 58.4291 78.8438 55.3879 78.6761 55.0888C77.1598 52.3899 75.7351 49.6046 74.1998 46.7968C73.8454 46.1467 73.363 45.8579 72.6368 45.8579C72.6334 45.8579 72.6282 45.8579 72.6247 45.8579C71.1534 45.8649 69.9034 45.8631 68.458 45.8614L65.7626 45.8597V45.6868C65.7626 45.5243 65.7626 45.3669 65.7643 45.2131C65.766 44.8759 65.766 44.6321 65.7608 44.3123C65.7539 43.9302 65.5914 43.6103 65.2785 43.3648C64.9672 43.1193 64.5834 43 64.108 43C55.3993 43 47.0398 43 38.3328 43.0017C38.1046 43.0017 37.8781 43.019 37.662 43.0536C37.0707 43.1487 36.5797 43.6535 36.5451 44.2033C36.5071 44.8154 36.8961 45.2805 37.4926 45.4447C37.7623 45.5191 38.0579 45.5294 38.2844 45.5294C45.278 45.5329 52.2716 45.5329 59.2617 45.5329H63.2469V51.9335C63.2469 52.3052 63.2469 52.6752 63.2452 53.0469C63.2435 53.9667 63.2418 54.9159 63.2521 55.8513C63.259 56.51 63.7587 57.0615 64.4157 57.1359C64.6699 57.1653 64.9413 57.1791 65.2439 57.1791C68.9663 57.1825 72.8167 57.1843 76.6013 57.1739C76.6031 57.1739 76.6048 57.1739 76.6065 57.1739C76.98 57.1739 77.2358 57.2915 77.4623 57.5664C77.4623 57.5664 79.0322 59.017 79.6391 59.7172L79.6737 59.757C79.812 59.916 79.8881 60.12 79.8881 60.331C79.8846 61.9129 79.9244 67.7741 79.9244 67.7741H76.2815L76.2417 67.596C75.2337 64.5306 72.5193 63.3791 70.5016 63.3255C67.4137 63.2425 65.2663 64.6672 64.1252 67.5597L64.082 67.7723H54.4985C54.4708 67.6306 54.4293 67.4888 54.374 67.3539C53.2744 64.6966 51.2671 63.3376 48.4074 63.3151C48.3832 63.3151 48.359 63.3151 48.3365 63.3151C45.444 63.3151 43.4782 64.6914 42.3578 67.4093C42.3111 67.5217 42.2748 67.6392 42.2472 67.7568H40.7689C39.9044 67.7568 39.04 67.7551 38.1738 67.7602C37.9473 67.762 37.7554 67.7793 37.5876 67.8173C37.1468 67.9176 36.7854 68.1493 36.6229 68.5504C36.4742 68.9152 36.5122 69.3111 36.7232 69.6344C37.0102 70.0805 37.4355 70.3035 37.9922 70.307ZM65.7885 54.6358V48.4289C65.7885 48.4289 70.7938 48.3995 71.6825 48.3943C72.0041 48.3909 72.2115 48.5067 72.3602 48.7781C73.0483 50.0351 73.7572 51.3871 74.4401 52.6199L75.5138 54.6341H65.7885V54.6358ZM66.646 68.5158C66.7204 67.7464 67.0956 67.1188 67.7923 66.5984C68.4995 66.0711 69.3363 65.8186 70.2768 65.8498C71.3349 65.8843 72.2184 66.2595 72.9014 66.9632C73.4616 67.5389 73.7382 68.2098 73.7261 68.9549C73.7555 70.4003 72.5833 71.678 70.9408 71.9927C70.6486 72.048 70.3616 72.0774 70.0849 72.0774C69.1444 72.0774 68.2937 71.7558 67.5486 71.1179C66.8207 70.4937 66.5337 69.6673 66.646 68.5158ZM44.7939 68.8132C44.8077 67.9452 45.2936 67.1361 46.1598 66.5344C47.5982 65.5368 49.6626 65.663 50.961 66.8266C52.1506 67.8916 52.282 69.5497 51.274 70.7686C50.598 71.5864 49.5399 72.0532 48.3953 72.0532C48.2881 72.0532 48.1809 72.0498 48.0737 72.0411C46.8168 71.946 45.7241 71.3011 45.1518 70.3174C44.9115 69.9059 44.8043 69.4563 44.7939 68.8184V68.8132Z" fill="white"/>
<path d="M50.2545 48.9928C50.073 48.9357 49.8586 48.9063 49.6165 48.9063C48.4512 48.9029 45.6296 48.8994 42.8304 48.8994C40.0537 48.8994 37.2961 48.9011 36.1947 48.9081C35.9025 48.9098 35.6207 48.9617 35.4011 49.055C34.9689 49.2383 34.6802 49.61 34.6283 50.0492C34.5764 50.4952 34.7735 50.9309 35.1591 51.2127C35.4392 51.4185 35.7832 51.5153 36.2431 51.5153H39.3673C42.7509 51.5153 46.1344 51.5153 49.518 51.5136C49.7203 51.5136 49.9174 51.4946 50.1058 51.4548C50.6919 51.3355 51.1432 50.8479 51.176 50.2981C51.2123 49.693 50.851 49.1812 50.2545 48.9928Z" fill="white"/>
<path d="M48.5339 56.1906C48.6428 55.7636 48.5287 55.3884 48.1863 55.0426C47.8907 54.7435 47.5 54.6104 46.9208 54.6104C46.9208 54.6104 46.9208 54.6104 46.919 54.6104L41.9933 54.6121C39.2218 54.6121 36.452 54.6121 33.6805 54.6155C33.4903 54.6155 33.2897 54.6346 33.0857 54.6691C32.5584 54.7625 32.0985 55.2155 32.0172 55.7255C31.9273 56.2874 32.1936 56.7836 32.7123 57.0205C32.9803 57.1433 33.3036 57.2141 33.5975 57.2176C35.8296 57.2349 44.7284 57.2297 46.945 57.2228C47.1161 57.2228 47.3668 57.2141 47.5864 57.1467C48.1016 56.9876 48.4094 56.6764 48.5339 56.1906Z" fill="white"/>
<path d="M44.8701 61.797C44.941 61.1919 44.552 60.6196 43.9434 60.4363C43.7618 60.381 43.5405 60.3551 43.2656 60.3533C41.4139 60.3482 39.5622 60.3499 37.7105 60.3499H36.3879H36.2582C36.215 60.3499 36.1718 60.3499 36.1303 60.3499C36.0456 60.3499 35.9626 60.3516 35.8813 60.3568C35.4456 60.3862 35.0445 60.6196 34.8128 60.9792C34.6002 61.3095 34.5517 61.7019 34.6831 62.0581C34.8716 62.5681 35.3851 62.9156 35.9608 62.9208C37.2593 62.9329 43.1014 62.9381 43.6062 62.9174C44.2338 62.8897 44.7992 62.3883 44.8701 61.797Z" fill="white"/>
</svg>
