<svg width="114" height="114" viewBox="0 0 114 114" fill="none" xmlns="http://www.w3.org/2000/svg">
<circle cx="57" cy="57" r="57" fill="#222222"/>
<path d="M36.5299 73.6046C36.5337 72.0045 36.7628 70.418 37.2095 68.8873C38.0625 65.9644 39.6298 63.3459 41.871 61.1085C42.3601 60.6194 42.8876 60.167 43.3979 59.728C43.6309 59.5277 43.8638 59.3275 44.0949 59.1234L44.4203 58.8346L45.7277 60.0341C48.1171 62.2272 53.7144 67.3642 55.6706 69.1453C56.3349 69.7498 57.2302 69.7537 57.8983 69.1568C58.8245 68.327 67.8759 59.9321 68.6596 59.1754L68.9099 58.9328L69.2796 59.1272C69.32 59.1465 69.3643 59.1696 69.4163 59.2081C74.2992 62.9627 76.8408 67.8167 76.9678 73.6373C76.9717 73.8279 77.0044 74.0089 77.0602 74.1437C77.3317 74.8022 78.0538 75.1757 78.7797 75.0294C79.5306 74.8792 80.01 74.3035 80.0004 73.5641C79.9792 71.9391 79.7963 70.4565 79.4439 69.0278C78.5659 65.4696 76.7753 62.2734 74.124 59.5277C71.7287 57.0478 68.8502 55.1859 65.3209 53.8323C65.1476 53.7649 64.9704 53.7052 64.7837 53.6397C64.6913 53.607 64.595 53.5743 64.4949 53.5396L63.7574 53.2797L64.3755 52.6867C64.4256 52.6366 64.4641 52.6 64.5045 52.5692C65.3652 51.9184 66.0814 51.2175 66.6956 50.4281C68.6153 47.9559 69.3778 45.345 69.0254 42.4453C68.6615 39.4454 67.2117 36.9443 64.7182 35.0092C61.8666 32.7969 58.5048 31.9632 54.7233 32.5293C51.4539 33.0183 48.7833 34.5298 46.7828 37.0175C44.7457 39.5513 43.9948 42.4318 44.5531 45.578C44.971 47.9405 46.157 50.0219 48.0805 51.7644C48.3116 51.9723 48.558 52.1745 48.818 52.3863C48.947 52.4922 49.0798 52.6 49.2165 52.7136L49.8462 53.2373L48.9605 53.5801C48.8815 53.6109 48.8199 53.6359 48.7544 53.6571C46.3034 54.4831 44.0564 55.6595 42.0732 57.1537C38.5958 59.7761 36.1082 63.0686 34.6814 66.9406C33.8728 69.1318 33.478 71.3788 33.5031 73.618C33.505 73.8087 33.5262 73.9589 33.5647 74.0782C33.7861 74.7483 34.5024 75.1449 35.2687 75.0217C36.0196 74.9042 36.5279 74.3343 36.5299 73.6046ZM48.6254 47.9289C46.7905 45.0254 47.0562 41.2515 49.2878 38.5386C50.9263 36.5457 53.1078 35.3982 55.7707 35.1325C58.5742 34.8514 61.0599 35.6119 63.1548 37.3929C65.1996 39.1316 66.2047 41.3401 66.1411 43.9548C66.093 45.9688 65.3478 47.7614 63.9269 49.2825C62.0111 51.335 59.6312 52.3093 56.4369 52.3478H56.4234H56.41C53.0559 52.2034 50.3622 50.6765 48.6254 47.9289ZM47.707 57.0497C50.651 55.7154 53.62 55.0684 56.7835 55.0684C56.7854 55.0684 56.7874 55.0684 56.7912 55.0684C59.9431 55.0684 62.9122 55.7173 65.8638 57.0516L66.5281 57.352L56.7854 66.2918L47.0427 57.352L47.707 57.0497Z" fill="white"/>
<path d="M44.9123 69.6963C44.9046 69.6963 44.8988 69.6963 44.8911 69.6963C44.0613 69.7059 43.474 70.2489 43.4625 71.0191C43.4567 71.4427 43.4586 73.191 43.4644 73.6396C43.474 74.4059 44.0748 74.9681 44.8892 74.9778C45.6883 74.9874 46.3314 74.4136 46.3468 73.6742C46.3679 72.7462 46.3699 71.8393 46.3506 70.9806C46.3352 70.2335 45.7306 69.6963 44.9123 69.6963Z" fill="white"/>
<path d="M69.5292 69.6963C69.4676 69.6963 69.406 69.6982 69.3405 69.7021C68.6916 69.7464 68.139 70.3278 68.1332 70.9729C68.1275 71.8335 68.1275 72.7192 68.1332 73.6819C68.1352 74.0324 68.2796 74.3558 68.5395 74.5946C68.8071 74.8391 69.173 74.9739 69.5715 74.9739C69.5754 74.9739 69.5792 74.9739 69.5831 74.9739C70.3822 74.9681 70.9887 74.4136 70.9964 73.6858L70.9906 70.9016C70.9829 70.7553 70.9482 70.6051 70.8943 70.4896C70.6556 69.9639 70.1973 69.6963 69.5292 69.6963Z" fill="white"/>
</svg>
