<svg width="114" height="114" viewBox="0 0 114 114" fill="none" xmlns="http://www.w3.org/2000/svg">
<circle cx="57" cy="57" r="57" fill="#222222"/>
<path d="M41.4315 60.3071C41.0272 60.637 40.6667 60.928 40.308 61.2227C39.5395 61.8547 38.7 61.7398 38.1246 60.9131C36.187 58.1329 34.2513 55.3528 32.3174 52.5707C31.7821 51.8015 31.9277 51.0657 32.7253 50.6005C35.8137 48.7989 38.9003 46.9936 42.0051 45.2217C42.3966 44.9975 42.8847 44.927 43.3399 44.8436C45.8602 44.3765 48.3913 43.9577 50.9043 43.4572C51.8512 43.2682 52.7672 42.9049 53.6959 42.6232C54.0801 42.5064 54.4644 42.3878 54.8522 42.2821C55.0726 42.2228 55.1654 42.1116 55.1582 41.867C55.1418 41.259 55.1418 40.6511 55.1582 40.0431C55.18 39.2499 55.679 38.7661 56.4583 38.7049C56.7206 38.6846 57.0065 38.6178 57.2268 38.4807C57.8787 38.0766 57.8842 37.2592 57.2669 36.8033C56.6368 36.3381 55.6699 36.5512 55.3566 37.2314C55.2984 37.3575 55.2802 37.5076 55.2656 37.6485C55.2037 38.2731 54.8176 38.729 54.2167 38.8718C53.6522 39.0071 53.0294 38.7457 52.7381 38.236C52.5068 37.8301 52.5523 37.3834 52.6488 36.9608C52.9985 35.4299 54.0055 34.5161 55.4532 34.1454C56.8098 33.797 58.0772 34.0713 59.1734 35.0054C60.7486 36.3455 60.7996 38.7809 59.2518 40.1562C58.8967 40.4713 58.4469 40.677 58.0499 40.9458C57.9588 41.0069 57.8514 41.1182 57.8423 41.2145C57.8168 41.5278 57.8332 41.8447 57.8332 42.1802C58.7473 42.4601 59.6451 42.7121 60.5283 43.0068C62.2965 43.5962 64.1338 43.8409 65.9512 44.1893C67.428 44.4729 68.9085 44.7231 70.3853 45.0067C70.633 45.0549 70.8861 45.1606 71.0991 45.2996C74.1329 47.305 77.1594 49.3216 80.1877 51.3344C80.2642 51.3845 80.3389 51.4364 80.4135 51.4901C81.0782 51.9813 81.1893 52.6801 80.6885 53.3436C79.9073 54.3815 79.1152 55.4102 78.3248 56.4426C77.1831 57.9328 76.0413 59.4211 74.8977 60.9094C74.224 61.7861 73.5047 61.8788 72.616 61.2097C72.2864 60.9613 71.955 60.7185 71.5617 60.4257C71.5617 60.6351 71.5617 60.776 71.5617 60.915C71.5617 67.4207 71.5635 73.9245 71.5635 80.4301C71.5635 81.5237 71.1046 82 70.0302 82C65.5487 82 48.0399 81.9907 43.766 81.9889C43.4291 81.9889 43.0904 81.9778 42.7535 81.9796C42.1344 81.9833 41.4224 81.4792 41.4242 80.6266C41.437 74.4119 41.4315 68.1991 41.4315 61.9844C41.4315 61.4525 41.4315 60.915 41.4315 60.3071ZM77.7549 52.8524C77.6875 52.795 77.6529 52.7579 77.611 52.7301C75.2674 51.1695 72.9274 49.6052 70.5765 48.0575C70.1486 47.7758 69.7461 47.4607 69.1998 47.3699C67.6666 47.1197 66.1424 46.812 64.6146 46.5284C64.0064 46.4154 63.3963 46.3116 62.7918 46.2041C61.4825 49.1993 59.3555 50.7117 56.431 50.6375C53.4228 50.5597 51.294 49.1251 50.1668 46.2078C50.1176 46.2096 50.0393 46.2041 49.9647 46.2189C47.9616 46.584 45.9585 46.9454 43.9572 47.3217C43.6422 47.381 43.3071 47.4403 43.034 47.5979C40.5483 49.0213 38.0736 50.467 35.5952 51.909C35.4769 51.9776 35.3658 52.0591 35.2383 52.1426C36.7133 54.2574 38.1592 56.3332 39.6142 58.4221C39.7525 58.3109 39.8563 58.2312 39.9565 58.1496C40.6121 57.6084 41.2585 57.0561 41.9214 56.5278C42.3693 56.172 42.8774 56.1294 43.3873 56.374C43.8971 56.6187 44.1229 57.0579 44.1138 57.6251C44.112 57.7437 44.1138 57.8623 44.1138 57.9828C44.1138 64.9778 44.1138 71.9728 44.1138 78.9677C44.1138 79.1086 44.1138 79.2513 44.1138 79.42C52.3939 79.42 60.6302 79.42 68.8903 79.42C68.8903 79.2217 68.8903 79.0641 68.8903 78.9066C68.8903 73.6427 68.8903 68.3807 68.8903 63.1169C68.8903 61.3709 68.883 59.6268 68.8848 57.8809C68.8866 57.184 69.3164 56.6817 69.9847 56.5575C70.4235 56.476 70.8005 56.6094 71.1483 56.8744C71.8858 57.4323 72.6288 57.9847 73.3863 58.5537C74.8486 56.6465 76.2981 54.7541 77.7549 52.8524ZM60.1113 45.5591C58.9968 45.218 57.8842 44.8714 56.7643 44.5434C56.5913 44.4933 56.3819 44.4915 56.2071 44.5415C55.3967 44.7695 54.5918 45.0197 53.7869 45.2662C53.4719 45.3626 53.1605 45.4738 52.8473 45.5794C53.3463 47.2327 54.9251 48.1928 56.9045 48.0872C58.3649 48.0056 59.86 46.8361 60.1113 45.5591Z" fill="white"/>
</svg>
