<svg width="114" height="114" viewBox="0 0 114 114" fill="none" xmlns="http://www.w3.org/2000/svg">
<circle cx="57" cy="57" r="57" fill="#222222"/>
<path d="M76.9919 70.2197C76.9936 69.4612 76.9936 68.7044 76.9936 67.946V67.2834C76.9953 66.7721 76.9953 66.2609 76.9919 65.7513C76.9869 65.1694 76.5933 64.6649 76.035 64.527C75.9341 64.5017 75.8332 64.4933 75.7256 64.4849C75.7104 64.4832 75.6936 64.4816 75.6768 64.4816V59.2917C75.6768 54.6416 75.6768 49.9916 75.6751 45.3415C75.6751 44.4721 75.4615 43.6884 75.0394 43.0157C73.9917 41.339 72.463 40.4846 70.4936 40.4813C64.214 40.4661 57.83 40.4678 51.6563 40.4678C48.7604 40.4678 45.8627 40.4695 42.965 40.4678H43.1231C42.3445 40.4678 41.5978 40.6158 40.9083 40.9068C38.949 41.7342 37.7886 43.4664 37.8038 45.5383C37.8256 48.4965 37.8172 51.5052 37.8105 54.4146L37.8071 55.4657C37.8038 57.0062 38.9019 57.9328 39.9244 58.1397C40.3247 58.2204 40.582 58.2339 40.9839 58.2473C41.1437 58.2524 41.3018 58.2574 41.4599 58.2658C41.5995 58.2742 41.7424 58.2725 41.8803 58.2692C41.9022 58.2692 42.0317 58.2692 42.0535 58.2675V61.5402H41.6634C41.2816 61.5402 40.8982 61.5419 40.5164 61.5435C39.62 61.5469 38.875 61.5519 37.9635 61.5335C37.5464 61.5301 37.1781 61.6646 36.9158 61.9236C36.6467 62.1893 36.5071 62.561 36.5088 62.9999C36.529 65.8774 36.5256 68.8037 36.5223 71.6324C36.5206 72.6751 36.5206 73.7194 36.5206 74.7621V75.233C36.5189 75.6164 36.5189 75.9999 36.5239 76.3816C36.5323 77.0627 36.8872 77.5034 37.5481 77.653C37.7247 77.6934 37.9198 77.7119 38.1451 77.7119C49.613 77.7136 60.8959 77.7136 72.3637 77.7136H75.3118H75.3959C75.4245 77.7136 75.4548 77.7153 75.4834 77.7153C75.512 77.7153 75.5406 77.7153 75.5708 77.7136C76.4605 77.6749 77.0087 77.1149 77.0003 76.2521C76.9852 74.2441 76.9885 72.1974 76.9919 70.2197ZM74.4962 66.9403V75.2011H50.0671V66.9403H74.4962ZM42.0586 66.5838C42.0603 67.1925 42.3193 67.6466 42.8675 67.8249C43.4511 68.0132 43.8362 67.8821 44.2112 67.4986C44.4299 67.275 44.5341 67.0008 44.5341 66.6611C44.5308 65.8707 44.5324 65.0786 44.5341 64.2882C44.5341 64.2041 44.5392 64.1183 44.5442 64.0309L44.5459 64.0006C44.5745 63.9955 44.6922 63.9922 44.7174 63.9922C45.5112 63.9905 46.3033 63.9905 47.0921 63.9905H47.5714L47.5882 75.2011H44.5207C44.5156 75.1237 44.4921 73.1846 44.5173 72.6313C44.5324 72.2933 44.413 71.9721 44.181 71.7232C43.9304 71.4541 43.6932 71.3027 43.3081 71.2943C42.955 71.2893 42.6808 71.4137 42.4353 71.6526C42.1814 71.8981 42.0401 72.2428 42.0384 72.6212C42.0334 73.1577 42.035 73.6942 42.035 74.2307V75.2061H39.0197V64.009H42.0569V64.9693C42.0569 65.5091 42.0569 66.0473 42.0586 66.5838ZM40.3045 45.4206C40.3028 43.9928 41.396 43.1048 42.4773 42.9652C42.7801 42.9266 43.0878 42.9064 43.3905 42.9064C51.5033 42.903 61.133 42.9013 70.4634 42.9064C71.5245 42.9064 72.3335 43.3184 72.8699 44.129C73.1054 44.4872 73.2113 44.9093 73.2097 45.4996C73.2063 47.1932 73.2063 48.885 73.2063 50.5785V64.4782H60.8118V61.6899C60.8118 57.3577 60.8118 53.0272 60.8101 48.6916C60.8101 48.5049 60.8101 48.3115 60.7563 48.1282C60.6133 47.6371 60.1458 47.2789 59.5942 47.2386C59.5471 47.2352 59.5 47.2352 59.4529 47.2369H59.4042H56.7756C53.8981 47.2369 51.019 47.2369 48.1415 47.2369C47.3881 47.2369 46.8499 47.6489 46.7389 48.3098C46.7204 48.4158 46.7221 48.5217 46.7221 48.6243V48.6899V55.2017V55.2807C46.7221 55.3497 46.7221 55.4186 46.7204 55.4859C46.712 55.765 46.6868 55.7919 46.421 55.797C46.2478 55.8004 46.0763 55.8004 45.9031 55.7987H45.6676L40.7384 55.8004C40.3415 55.8004 40.3045 55.7634 40.3045 55.3547V51.9643C40.3062 49.778 40.3079 47.6001 40.3045 45.4206ZM50.0654 63.5499C50.0654 63.4725 50.0654 63.3952 50.0671 63.3161C50.0688 63.1059 50.0721 62.8889 50.0469 62.6737C49.9679 61.9959 49.497 61.5654 48.8159 61.5486C48.1987 61.5334 46.3975 61.5368 45.195 61.5385H44.5476V58.2658H44.6603C44.7544 58.2658 44.8419 58.2658 44.9293 58.2658C45.1227 58.2624 45.3145 58.2624 45.5079 58.2608C45.9451 58.2591 46.2192 58.2574 46.6632 58.2238C47.8926 58.1313 49.2128 57.0903 49.201 55.5733C49.1909 54.2616 49.1943 52.9262 49.1976 51.6347C49.1993 51.078 49.1993 50.5213 49.201 49.963V49.6838H58.3413V64.4681H50.0688V64.2646C50.0671 64.0258 50.0671 63.787 50.0654 63.5499Z" fill="white"/>
<path d="M66.9153 54.0113C67.7746 54.0113 68.6374 53.7388 69.3336 53.1788C70.5142 52.2286 70.9128 50.7403 70.3477 49.3865C69.8045 48.0831 68.375 47.2372 66.7067 47.2305H66.7034C66.0206 47.2422 65.2638 47.508 64.6281 47.9587C63.8461 48.5136 63.3533 49.3259 63.2406 50.2458C63.1313 51.1422 63.4004 52.0184 63.9974 52.7147C64.7323 53.5707 65.8204 54.0113 66.9153 54.0113ZM65.6758 50.6579C65.6708 50.3871 65.7969 50.1063 66.0239 49.8859C66.2695 49.6488 66.584 49.5193 66.9035 49.5311C67.556 49.5546 68.1177 50.081 68.1059 50.6579C68.0942 51.233 67.551 51.6989 66.8968 51.6989C66.8951 51.6989 66.8934 51.6989 66.8917 51.6989C66.2325 51.6972 65.6876 51.2297 65.6758 50.6579Z" fill="white"/>
<path d="M69.5815 58.2423C69.3359 58.1414 69.0803 58.1161 68.9088 58.1111C68.2462 58.096 65.626 58.0993 64.9853 58.1077C64.7683 58.1111 64.5665 58.1363 64.3866 58.1834C63.9173 58.3079 63.5406 58.7418 63.4919 59.2143C63.4397 59.7222 63.7038 60.1847 64.1679 60.3932C64.4051 60.5009 64.6792 60.5614 64.9432 60.5631C65.5604 60.5698 66.181 60.5732 66.7999 60.5732C67.3178 60.5732 67.8325 60.5715 68.3403 60.5698L68.8297 60.5681C68.9979 60.5681 69.161 60.5513 69.3174 60.521C69.8405 60.4185 70.2592 59.9879 70.3114 59.4969C70.3685 58.9335 70.091 58.4525 69.5815 58.2423Z" fill="white"/>
</svg>
